<?xml version="1.0" encoding="UTF-8" standalone="no"?>
<svg stroke-miterlimit="10" style="fill-rule:nonzero;clip-rule:evenodd;stroke-linecap:round;stroke-linejoin:round;" version="1.1" viewBox="100 6 44 48" xmlns="http://www.w3.org/2000/svg">
<g>
<path d="M106.487 27.9489C107.955 31.8425 113.471 37.9524 118.158 34.8671C121.253 32.829 122.465 29.3264 123.515 25.7429" fill="none" opacity="1" stroke="#222e39" stroke-linecap="round" stroke-linejoin="round" stroke-width="1"/>
<path d="M115.193 36.2355C115.193 51.3955 133.785 50.6996 136.468 36.4685C136.776 34.8326 137.411 31.9625 136.534 30.4117" fill="none" opacity="1" stroke="#222e39" stroke-linecap="round" stroke-linejoin="round" stroke-width="1"/>
<path d="M134.53 22.7432C131.37 23.7327 130.291 33.2122 138.846 29.4302C141.292 28.3487 141.189 25.7661 140.248 24.2566C139.178 22.5379 136.932 21.9906 134.53 22.7432Z" fill="none" opacity="1" stroke="#222e39" stroke-linecap="round" stroke-linejoin="round" stroke-width="1"/>
<path d="M106.039 26.5982C104.605 22.2948 102.741 9.99665 109.968 9.99665" fill="none" opacity="1" stroke="#1a6db5" stroke-linecap="round" stroke-linejoin="round" stroke-width="1"/>
<path d="M118.55 9.10705C123.217 9.10705 123.869 15.4914 123.869 18.9238C123.869 20.1315 123.762 21.3335 123.762 22.5292C123.762 22.9175 123.659 24.2706 123.762 24.0641" fill="none" opacity="1" stroke="#1a6db5" stroke-linecap="round" stroke-linejoin="round" stroke-width="1"/>
<path d="M110.554 8.92856C109.537 10.3666 111.411 11.9978 112.481 10.5706C113.413 9.32897 111.429 7.69095 110.554 8.92856Z" fill="#1a6db5" fill-rule="nonzero" opacity="1" stroke="#1a6db5" stroke-linecap="round" stroke-linejoin="round" stroke-width="1"/>
<path d="M118.193 8.71438C117.992 8.05318 117.397 7.97403 117.097 7.94858C116.453 7.89385 115.834 8.40339 116.141 9.47532C116.262 9.8997 116.64 10.3193 116.867 10.3928C117.534 10.6094 118.508 9.74785 118.193 8.71438Z" fill="#1a6db5" fill-rule="nonzero" opacity="1" stroke="#1a6db5" stroke-linecap="round" stroke-linejoin="round" stroke-width="1"/>
<path d="M135.845 25.2083C134.809 25.5796 135.347 28.6051 137.109 27.4836C138.55 26.5666 137.57 24.5904 135.845 25.2083Z" fill="#1a6db5" fill-rule="nonzero" opacity="1" stroke="#1a6db5" stroke-linecap="round" stroke-linejoin="round" stroke-width="1"/>
</g>
</svg>
