<?xml version="1.0" encoding="UTF-8" standalone="no"?>
<!DOCTYPE svg PUBLIC "-//W3C//DTD SVG 1.1//EN" "http://www.w3.org/Graphics/SVG/1.1/DTD/svg11.dtd">
<!-- Created with Vectornator (http://vectornator.io/) -->
<svg height="80.0px" stroke-miterlimit="10" style="fill-rule:nonzero;clip-rule:evenodd;stroke-linecap:round;stroke-linejoin:round;" version="1.1" viewBox="0 0 160 80" width="160.0px" xml:space="preserve" xmlns="http://www.w3.org/2000/svg" xmlns:xlink="http://www.w3.org/1999/xlink">
<defs/>
<g id="Layer-1">
<path d="M4.59663 43.1085C7.98956 36.4137 9.43945 28.8376 13.0947 22.2809C13.163 22.1583 15.8714 16.3986 16.0467 16.4562C17.4293 16.9109 17.6748 22.122 17.8358 23.0751C18.7187 28.3015 19.0356 33.5464 20.3405 38.6958C20.5755 39.6234 22.6273 46.4734 21.4139 44.0792" fill="none" opacity="1" stroke="#1a6db5" stroke-linecap="round" stroke-linejoin="round" stroke-width="1"/>
<path d="M8.90847 33.51C8.89945 33.5055 16.9197 33.7792 17.2924 33.0336" fill="none" opacity="1" stroke="#1a6db5" stroke-linecap="round" stroke-linejoin="round" stroke-width="1"/>
<path d="M33.2029 34.6532C33.2029 28.5068 25.809 32.3895 26.1528 39.6074C26.3587 43.9324 34.1556 46.341 34.1556 42.275" fill="none" opacity="1" stroke="#1a6db5" stroke-linecap="round" stroke-linejoin="round" stroke-width="1"/>
<path d="M38.824 21.2198C38.638 20.6619 38.9843 25.3071 39.0145 26.3645C39.074 28.4461 41.6469 47.951 39.872 43.5136" fill="none" opacity="1" stroke="#1a6db5" stroke-linecap="round" stroke-linejoin="round" stroke-width="1"/>
<path d="M35.9658 32.7478C35.2199 33.1208 38.8313 33.2597 39.2051 33.2241C41.4365 33.0116 43.6246 32.6525 45.8741 32.6525" fill="none" opacity="1" stroke="#1a6db5" stroke-linecap="round" stroke-linejoin="round" stroke-width="1"/>
<path d="M50.3467 29.9717C50.3467 29.8998 50.3467 29.8279 50.3467 29.7559" fill="none" opacity="1" stroke="#1a6db5" stroke-linecap="round" stroke-linejoin="round" stroke-width="1"/>
<path d="M50.0516 33.6403C50.0516 36.7504 49.8546 40.7606 50.5435 43.7829" fill="none" opacity="1" stroke="#1a6db5" stroke-linecap="round" stroke-linejoin="round" stroke-width="1"/>
<path d="M54.7742 32.5613C54.7742 45.2355 59.4967 48.9938 59.4967 33.7482" fill="none" opacity="1" stroke="#1a6db5" stroke-linecap="round" stroke-linejoin="round" stroke-width="1"/>
<path d="M62.8419 30.2954C62.9075 30.2595 62.9731 30.2235 63.0387 30.1875" fill="none" opacity="1" stroke="#1a6db5" stroke-linecap="round" stroke-linejoin="round" stroke-width="1"/>
<path d="M63.7743 32.5613C63.7743 35.2517 62.8419 37.9113 62.8419 40.5997C62.8419 41.7107 62.8419 45.0437 62.8419 43.9327" fill="none" opacity="1" stroke="#1a6db5" stroke-linecap="round" stroke-linejoin="round" stroke-width="1"/>
<path d="M65.7935 31.2665C67.2436 31.2665 68.7294 30.6191 70.2209 30.6191C70.5241 30.6191 72.0248 30.5112 71.6967 30.5112" fill="none" opacity="1" stroke="#1a6db5" stroke-linecap="round" stroke-linejoin="round" stroke-width="1"/>
<path d="M68.7451 23.174C67.9059 21.3333 69.3579 27.2706 69.237 29.3243C69.0444 32.5993 68.7093 35.8729 68.45 39.1432C68.3749 40.0896 68.1 44.5505 68.3516 43.9987" fill="none" opacity="1" stroke="#1a6db5" stroke-linecap="round" stroke-linejoin="round" stroke-width="1"/>
<path d="M75.6322 29.2164C75.6978 29.1805 75.7634 29.1445 75.829 29.1085" fill="none" opacity="1" stroke="#1a6db5" stroke-linecap="round" stroke-linejoin="round" stroke-width="1"/>
<path d="M75.7306 31.806C75.7306 34.9857 76.0258 40.0968 75.6322 43.8566" fill="none" opacity="1" stroke="#1a6db5" stroke-linecap="round" stroke-linejoin="round" stroke-width="1"/>
<path d="M81.3386 36.0141C87.3095 36.0141 80.9644 27.8706 79.9612 36.122C79.3766 40.9305 83.8209 46.323 86.4548 40.5459" fill="none" opacity="1" stroke="#1a6db5" stroke-linecap="round" stroke-linejoin="round" stroke-width="1"/>
<path d="M91.6693 33.3166C90.8604 29.7682 87.7061 33.411 88.2257 35.6904C88.8522 38.4385 93.6543 35.0487 94.2273 38.8195C94.909 43.3048 91.9584 43.402 89.308 41.9486" fill="none" opacity="1" stroke="#1a6db5" stroke-linecap="round" stroke-linejoin="round" stroke-width="1"/>
<path d="M5.14413 53.8306C4.59505 52.7325 5.05432 56.2851 5.05432 57.5128C5.05432 58.8418 4.63665 60.555 5.14413 61.8237C5.35037 62.3393 10.7409 62.2728 11.6105 62.2728" fill="none" opacity="1" stroke="#222e39" stroke-linecap="round" stroke-linejoin="round" stroke-width="1"/>
<path d="M13.1373 58.7702C12.4501 56.7087 13.9943 62.868 13.5863 61.6441" fill="none" opacity="1" stroke="#222e39" stroke-linecap="round" stroke-linejoin="round" stroke-width="1"/>
<path d="M12.5984 56.1657C12.8253 55.9387 12.8537 56.0239 12.5984 55.8963" fill="none" opacity="1" stroke="#222e39" stroke-linecap="round" stroke-linejoin="round" stroke-width="1"/>
<path d="M18.7852 53.8414C18.7852 49.5945 17.1684 53.219 17.2921 55.8162C17.356 57.1581 17.6323 58.4867 17.8219 59.8138C17.8514 60.0201 18.1643 62.5592 18.0146 62.5592" fill="none" opacity="1" stroke="#222e39" stroke-linecap="round" stroke-linejoin="round" stroke-width="1"/>
<path d="M16.1361 57.6464C15.51 58.1762 18.3443 58.0317 19.4595 58.0317" fill="none" opacity="1" stroke="#222e39" stroke-linecap="round" stroke-linejoin="round" stroke-width="1"/>
<path d="M22.5421 59.4285C26.4884 58.4419 22.7847 57.5372 22.1086 58.7542C20.7633 61.1756 23.4435 63.3917 25.432 61.4033" fill="none" opacity="1" stroke="#222e39" stroke-linecap="round" stroke-linejoin="round" stroke-width="1"/>
<path d="M31.284 58.7301C30.2714 59.3237 31.154 61.2202 32.464 59.9102C33.248 59.1262 32.1313 58.2335 31.284 58.7301Z" fill="none" opacity="1" stroke="#222e39" stroke-linecap="round" stroke-linejoin="round" stroke-width="1"/>
<path d="M37.5826 55.5982C35.4653 58.725 38.9453 63.8504 41.7116 60.0467C43.622 57.4199 39.1833 53.2343 37.5826 55.5982Z" fill="none" opacity="1" stroke="#222e39" stroke-linecap="round" stroke-linejoin="round" stroke-width="1"/>
<path d="M44.1202 58.9161C44.0572 58.6642 44.0764 60.9582 45.644 60.784C46.6215 60.6754 46.8217 58.9141 46.2339 58.3263" fill="none" opacity="1" stroke="#222e39" stroke-linecap="round" stroke-linejoin="round" stroke-width="1"/>
<path d="M48.2001 57.3923C49.1835 57.3923 50.1144 57.0974 51.1002 57.0974" fill="none" opacity="1" stroke="#222e39" stroke-linecap="round" stroke-linejoin="round" stroke-width="1"/>
<path d="M49.1832 54.7871C49.1832 54.0982 49.2577 56.1631 49.2815 56.8516C49.3106 57.6973 49.9205 62.8724 49.9205 61.5214" fill="none" opacity="1" stroke="#222e39" stroke-linecap="round" stroke-linejoin="round" stroke-width="1"/>
<path d="M52.919 59.1619C54.3656 64.9487 53.6353 54.8436 55.4259 58.4246" fill="none" opacity="1" stroke="#222e39" stroke-linecap="round" stroke-linejoin="round" stroke-width="1"/>
<path d="M58.0802 58.9161C61.7646 58.9161 58.1755 57.102 57.687 57.8347C56.4002 59.765 58.5205 62.31 60.3414 60.4891" fill="none" opacity="1" stroke="#222e39" stroke-linecap="round" stroke-linejoin="round" stroke-width="1"/>
<path d="M63.3398 58.9161C63.3398 56.6109 61.4159 58.0141 62.2092 59.9975C62.4976 60.7185 63.2192 60.8732 63.4381 59.9975C63.8558 58.3267 63.5366 59.8011 64.4704 60.7349" fill="none" opacity="1" stroke="#222e39" stroke-linecap="round" stroke-linejoin="round" stroke-width="1"/>
<path d="M67.4197 58.3263C66.4988 56.4845 64.9362 61.6817 67.9112 60.1942" fill="none" opacity="1" stroke="#222e39" stroke-linecap="round" stroke-linejoin="round" stroke-width="1"/>
<path d="M70.1232 54.443C70.1232 55.2804 70.2834 56.1131 70.3198 56.9499C70.3433 57.49 70.339 58.0324 70.369 58.5721C70.6199 63.0879 70.3296 57.8957 72.2369 58.2771C73.3295 58.4957 73.3674 62.5373 73.3674 61.423" fill="none" opacity="1" stroke="#222e39" stroke-linecap="round" stroke-linejoin="round" stroke-width="1"/>
<path d="M75.2845 61.3247C76.066 61.7155 75.6215 63.4384 74.7438 63.4384" fill="none" opacity="1" stroke="#222e39" stroke-linecap="round" stroke-linejoin="round" stroke-width="1"/>
<path d="M100.876 60.9384C101.649 61.2882 101.692 63.0217 100.807 63.2184" fill="none" opacity="1" stroke="#222e39" stroke-linecap="round" stroke-linejoin="round" stroke-width="1"/>
<path d="M109.419 61.9614C108.935 60.8606 102.807 56.7279 105.355 55.061C108.132 53.2437 105.629 61.3733 106.002 61.6967C107.795 63.2526 111.301 59.3233 109.686 58.452" fill="none" opacity="1" stroke="#222e39" stroke-linecap="round" stroke-linejoin="round" stroke-width="1"/>
<path d="M115.551 56.3721C115.551 56.7938 115.626 57.2572 115.648 57.6923C115.957 63.8652 116.126 54.6981 117.6 56.0851C118.034 56.4943 118.139 60.1031 118.429 60.1031C119.545 60.1031 118.408 56.6296 119.502 56.3721C121.027 56.0133 120.899 59.7311 121.112 60.7345" fill="none" opacity="1" stroke="#222e39" stroke-linecap="round" stroke-linejoin="round" stroke-width="1"/>
<path d="M124.063 57.362C122.672 58.235 124.21 62.8227 126.629 59.9763C128.06 58.2932 125.509 56.4544 124.063 57.362Z" fill="none" opacity="1" stroke="#222e39" stroke-linecap="round" stroke-linejoin="round" stroke-width="1"/>
<path d="M128.481 57.2997C129.847 63.7286 128.195 53.9762 130.862 57.113" fill="none" opacity="1" stroke="#222e39" stroke-linecap="round" stroke-linejoin="round" stroke-width="1"/>
<path d="M133.084 57.7977C132.667 57.3073 134.939 57.0575 134.935 57.0507C132.622 52.5153 130.893 64.919 135.835 59.1048" fill="none" opacity="1" stroke="#222e39" stroke-linecap="round" stroke-linejoin="round" stroke-width="1"/>
<path d="M79.9305 56.037C79.7682 55.2105 79.7859 57.7155 79.6979 58.5531C79.4163 61.2354 78.727 63.4703 82.0548 62.7115C82.4748 62.6158 84.604 62.585 84.7474 62.0666" fill="none" opacity="1" stroke="#222e39" stroke-linecap="round" stroke-linejoin="round" stroke-width="1"/>
<path d="M78.9094 58.5336C80.3921 58.5703 84.6936 58.0157 83.2641 57.6204" fill="none" opacity="1" stroke="#222e39" stroke-linecap="round" stroke-linejoin="round" stroke-width="1"/>
<path d="M79.4388 55.9011C79.3301 55.3476 83.0316 54.9968 83.5032 54.8415" fill="none" opacity="1" stroke="#222e39" stroke-linecap="round" stroke-linejoin="round" stroke-width="1"/>
<path d="M86.7478 56.268C87.2139 54.5822 87.3661 63.1758 86.8188 61.5146C86.3112 59.9738 87.0427 57.9909 86.9152 56.3804C86.7258 53.9885 87.8059 57.1812 88.4257 57.8567C88.593 58.039 88.908 58.4346 89.2012 58.402C90.8647 58.217 91.3279 52.2778 91.508 57.7165C91.5299 58.3779 91.627 59.0279 91.6913 59.686C91.7406 60.1908 91.8343 60.8438 91.6966 61.3416" fill="none" opacity="1" stroke="#222e39" stroke-linecap="round" stroke-linejoin="round" stroke-width="1"/>
<path d="M95.7843 56.8479C96.5116 54.2174 93.4736 56.3295 93.7783 57.8811C93.8276 58.1323 102.37 61.9956 95.6539 62.105C94.9871 62.1158 94.3569 62.0736 93.691 62.0254" fill="none" opacity="1" stroke="#222e39" stroke-linecap="round" stroke-linejoin="round" stroke-width="1"/>
<path d="M106.487 27.9489C107.955 31.8425 113.471 37.9524 118.158 34.8671C121.253 32.829 122.465 29.3264 123.515 25.7429" fill="none" opacity="1" stroke="#222e39" stroke-linecap="round" stroke-linejoin="round" stroke-width="1"/>
<path d="M115.193 36.2355C115.193 51.3955 133.785 50.6996 136.468 36.4685C136.776 34.8326 137.411 31.9625 136.534 30.4117" fill="none" opacity="1" stroke="#222e39" stroke-linecap="round" stroke-linejoin="round" stroke-width="1"/>
<path d="M134.53 22.7432C131.37 23.7327 130.291 33.2122 138.846 29.4302C141.292 28.3487 141.189 25.7661 140.248 24.2566C139.178 22.5379 136.932 21.9906 134.53 22.7432Z" fill="none" opacity="1" stroke="#222e39" stroke-linecap="round" stroke-linejoin="round" stroke-width="1"/>
<path d="M106.039 26.5982C104.605 22.2948 102.741 9.99665 109.968 9.99665" fill="none" opacity="1" stroke="#1a6db5" stroke-linecap="round" stroke-linejoin="round" stroke-width="1"/>
<path d="M118.55 9.10705C123.217 9.10705 123.869 15.4914 123.869 18.9238C123.869 20.1315 123.762 21.3335 123.762 22.5292C123.762 22.9175 123.659 24.2706 123.762 24.0641" fill="none" opacity="1" stroke="#1a6db5" stroke-linecap="round" stroke-linejoin="round" stroke-width="1"/>
<path d="M110.554 8.92856C109.537 10.3666 111.411 11.9978 112.481 10.5706C113.413 9.32897 111.429 7.69095 110.554 8.92856Z" fill="#1a6db5" fill-rule="nonzero" opacity="1" stroke="#1a6db5" stroke-linecap="round" stroke-linejoin="round" stroke-width="1"/>
<path d="M118.193 8.71438C117.992 8.05318 117.397 7.97403 117.097 7.94858C116.453 7.89385 115.834 8.40339 116.141 9.47532C116.262 9.8997 116.64 10.3193 116.867 10.3928C117.534 10.6094 118.508 9.74785 118.193 8.71438Z" fill="#1a6db5" fill-rule="nonzero" opacity="1" stroke="#1a6db5" stroke-linecap="round" stroke-linejoin="round" stroke-width="1"/>
<path d="M135.845 25.2083C134.809 25.5796 135.347 28.6051 137.109 27.4836C138.55 26.5666 137.57 24.5904 135.845 25.2083Z" fill="#1a6db5" fill-rule="nonzero" opacity="1" stroke="#1a6db5" stroke-linecap="round" stroke-linejoin="round" stroke-width="1"/>
</g>
</svg>
