<?xml version="1.0" encoding="UTF-8" standalone="no"?>
<svg stroke-miterlimit="10" style="fill-rule:nonzero;clip-rule:evenodd;stroke-linecap:round;stroke-linejoin:round;" version="1.1" viewBox="105 10 48 53" xmlns="http://www.w3.org/2000/svg">
<g>
<path d="M116.567 57.9999C112.843 52.889 107.854 47.3623 109.2 41.5109C111.605 31.056 120.054 22.8887 128.407 18.3499C129.241 17.897 136.513 12.8618 136.827 13.203C138.182 14.6756 137.441 19.1598 137.441 21.0187C137.441 34.5559 135.547 38.1474 127.706 48.3734C126.769 49.5949 117.832 59.7361 116.567 57.9999Z" fill="#222e39" fill-rule="nonzero" opacity="1" stroke="#222e39" stroke-linecap="round" stroke-linejoin="round" stroke-width="1"/>
<path d="M121.778 59.5097C122.084 58.1539 127.702 52.5449 128.998 51.4177C131.544 49.2045 136.561 41.096 139.03 35.9059C140.424 32.9776 139.648 32.5855 144.301 29.5673C145.662 28.6849 148.349 26.0974 149.125 26.3082C150.623 26.7153 147.913 38.7797 147.681 40.0399C146.377 47.1242 145.208 53.0277 142.443 56.3286C140.855 58.2246 139.857 57.5591 135.857 58.2836C134.176 58.5881 121.511 60.6876 121.778 59.5097Z" fill="#222e39" fill-rule="nonzero" opacity="1" stroke="#222e39" stroke-linecap="round" stroke-linejoin="round" stroke-width="1"/>
<path d="M140.251 29.352C140.141 29.3235 139.56 29.2499 139.699 26.5957C139.738 25.8534 139.819 24.8747 139.851 23.5653C139.942 19.821 139.482 13.1686 140.056 12.2078C140.295 11.8062 140.919 12.1706 142.382 12.9252C143.979 13.7488 144.425 13.8339 144.713 14.5911C145.181 15.8209 146.772 18.4349 147.692 20.5109C148.233 21.7329 148.625 22.4181 148.195 23.4651C147.765 24.5151 144.038 27.0494 144.038 27.0494C143.459 27.3718 142.836 27.9783 142.216 28.4332C140.517 29.6813 140.836 29.5035 140.251 29.352Z" fill="#1a6db5" fill-rule="nonzero" opacity="1" stroke="#1a6db5" stroke-linecap="round" stroke-linejoin="round" stroke-width="1"/>
</g>
</svg>
