<?xml version="1.0" encoding="UTF-8" standalone="no"?>
<!DOCTYPE svg PUBLIC "-//W3C//DTD SVG 1.1//EN" "http://www.w3.org/Graphics/SVG/1.1/DTD/svg11.dtd">
<!-- Created with Vectornator (http://vectornator.io/) -->
<svg height="80.0px" stroke-miterlimit="10" style="fill-rule:nonzero;clip-rule:evenodd;stroke-linecap:round;stroke-linejoin:round;" version="1.1" viewBox="0 0 160 80" width="160.0px" xml:space="preserve" xmlns="http://www.w3.org/2000/svg" xmlns:xlink="http://www.w3.org/1999/xlink">
<defs/>
<g id="Layer-1">
<path d="M19.8808 16.223C18.1116 7.70255 11.4587 18.0144 10.2255 21.6437C5.52542 35.4762 16.1208 53.4069 23.6796 37.228" fill="none" opacity="1" stroke="#1a6db5" stroke-linecap="round" stroke-linejoin="round" stroke-width="1"/>
<path d="M29.3778 13.0045C29.3778 19.7791 29.6426 26.7382 30.1692 33.5013C30.296 35.1298 31.1189 42.4906 31.1189 41.2935" fill="none" opacity="1" stroke="#1a6db5" stroke-linecap="round" stroke-linejoin="round" stroke-width="1"/>
<path d="M35.7092 27.5725C36.844 30.0015 36.9754 40.3224 36.9754 39.4301" fill="none" opacity="1" stroke="#1a6db5" stroke-linecap="round" stroke-linejoin="round" stroke-width="1"/>
<path d="M35.076 24.5234C35.0233 24.4104 34.9705 24.2975 34.9177 24.1846" fill="none" opacity="1" stroke="#1a6db5" stroke-linecap="round" stroke-linejoin="round" stroke-width="1"/>
<path d="M42.3571 28.0807C42.3571 30.3202 42.8319 32.7154 42.8319 35.0259C42.8319 36.3857 43.1485 40.4512 43.1485 39.0913C43.1485 37.1878 43.1722 28.8472 46.4724 29.4358C49.6471 30.0021 48.2136 39.5995 48.2136 39.5995C48.2136 39.5995 49.4754 29.3504 52.8038 29.944C54.5794 30.2607 54.07 39.3507 54.07 40.9547" fill="none" opacity="1" stroke="#1a6db5" stroke-linecap="round" stroke-linejoin="round" stroke-width="1"/>
<path d="M59.2934 17.07C61.529 21.855 58.9768 32.1898 58.9768 37.5668C58.9768 38.7579 59.2934 41.1241 59.2934 41.1241C59.2934 41.1241 58.7123 34.2926 60.718 32.1461C62.9344 29.7741 66.7395 31.2596 67.8407 34.0095C69.7523 38.7831 63.373 42.7142 59.7682 40.7853" fill="none" opacity="1" stroke="#1a6db5" stroke-linecap="round" stroke-linejoin="round" stroke-width="1"/>
<path d="M73.2223 30.6216C73.2223 33.2989 73.3479 35.8965 73.2223 38.5832C73.1904 39.2667 73.3806 42.9849 73.3806 41.9711" fill="none" opacity="1" stroke="#1a6db5" stroke-linecap="round" stroke-linejoin="round" stroke-width="1"/>
<path d="M73.2223 26.3867L73.5389 26.3867" fill="none" opacity="1" stroke="#1a6db5" stroke-linecap="round" stroke-linejoin="round" stroke-width="1"/>
<path d="M79.5537 29.944C79.5537 29.7115 79.7024 35.836 79.5537 37.9056C79.4687 39.0879 79.5537 42.6486 79.5537 41.4629C79.5537 29.2922 84.777 26.7061 84.777 41.9711" fill="none" opacity="1" stroke="#1a6db5" stroke-linecap="round" stroke-linejoin="round" stroke-width="1"/>
<path d="M94.3422 32.8301C93.002 27.0931 86.839 35.3122 89.6506 39.5247C91.4065 42.1556 94.5187 41.1296 96.2188 38.8553C97.0336 37.7653 96.3752 34.6711 96.3752 34.6711C96.3752 34.6711 97.1181 37.0983 97.3135 38.3532C98.0962 43.3787 97.7996 46.6308 96.8444 51.7424C95.5933 58.437 90.2761 56.9307 87.4612 51.2403" fill="none" opacity="1" stroke="#1a6db5" stroke-linecap="round" stroke-linejoin="round" stroke-width="1"/>
<path d="M11.8162 54.1094C11.8162 53.4296 11.8452 56.9285 11.7285 57.707C11.3997 59.8986 11.0982 62.4921 11.3775 64.7267C11.4565 65.3591 16.4202 64.6389 17.2564 64.6389" fill="none" opacity="1" stroke="#222e39" stroke-linecap="round" stroke-linejoin="round" stroke-width="1"/>
<path d="M19.1869 59.0232C19.6842 60.5152 19.3623 62.456 19.3623 64.0247" fill="none" opacity="1" stroke="#222e39" stroke-linecap="round" stroke-linejoin="round" stroke-width="1"/>
<path d="M18.7481 56.6541C18.9759 56.5402 18.9236 56.6317 18.9236 56.3908" fill="none" opacity="1" stroke="#222e39" stroke-linecap="round" stroke-linejoin="round" stroke-width="1"/>
<path d="M21.907 58.8477C21.907 64.3172 24.8903 63.6048 24.8903 58.5845" fill="none" opacity="1" stroke="#222e39" stroke-linecap="round" stroke-linejoin="round" stroke-width="1"/>
<path d="M27.6105 60.8659C31.0551 59.1435 28.2925 58.7733 28.0492 58.9355C25.2757 60.7844 27.8442 65.2095 31.2958 62.6208" fill="none" opacity="1" stroke="#222e39" stroke-linecap="round" stroke-linejoin="round" stroke-width="1"/>
<path d="M36.5605 58.6722C37.1225 58.6722 41.6108 59.072 41.3865 58.8477" fill="none" opacity="1" stroke="#222e39" stroke-linecap="round" stroke-linejoin="round" stroke-width="1"/>
<path d="M38.8419 52.9688C38.8419 51.6788 39.0556 55.5406 39.1052 56.8296C39.2063 59.4607 39.4561 62.213 39.4561 64.8144" fill="none" opacity="1" stroke="#222e39" stroke-linecap="round" stroke-linejoin="round" stroke-width="1"/>
<path d="M41.913 62.1821C42.5591 62.5051 42.7027 64.9226 42.7027 64.2002C42.7027 63.3364 43.8001 57.0062 45.5106 60.4271" fill="none" opacity="1" stroke="#222e39" stroke-linecap="round" stroke-linejoin="round" stroke-width="1"/>
<path d="M48.4062 61.3046C48.4062 58.9706 46.8268 61.3766 46.8268 62.6208C46.8268 63.8081 48.1971 64.523 48.4062 63.0595C48.821 60.1561 49.21 63.0876 49.9856 64.6389" fill="none" opacity="1" stroke="#222e39" stroke-linecap="round" stroke-linejoin="round" stroke-width="1"/>
<path d="M51.3896 59.6374C51.3896 61.1025 51.6528 65.4898 51.6528 64.0247" fill="none" opacity="1" stroke="#222e39" stroke-linecap="round" stroke-linejoin="round" stroke-width="1"/>
<path d="M51.3018 56.3031L51.3018 56.3908" fill="none" opacity="1" stroke="#222e39" stroke-linecap="round" stroke-linejoin="round" stroke-width="1"/>
<path d="M54.0219 59.2865C53.2753 57.7932 53.1047 65.4685 54.2852 64.288C55.3422 63.231 56.3563 54.6756 56.9176 62.533C56.9649 63.1959 57.093 63.8973 57.093 64.5512" fill="none" opacity="1" stroke="#222e39" stroke-linecap="round" stroke-linejoin="round" stroke-width="1"/>
<path d="M59.6347 58.9921C59.6347 60.6424 59.9676 62.3031 59.9676 63.9481" fill="none" opacity="1" stroke="#222e39" stroke-linecap="round" stroke-linejoin="round" stroke-width="1"/>
<path d="M59.3019 56.4401L59.3019 56.5511" fill="none" opacity="1" stroke="#222e39" stroke-linecap="round" stroke-linejoin="round" stroke-width="1"/>
<path d="M62.2237 58.7332C62.2237 59.5805 62.2567 60.4998 62.2977 61.3591C62.3195 61.8174 62.38 62.2705 62.4086 62.7275C62.709 67.534 64.4694 56.0821 65.1085 59.9167C65.3485 61.3568 65.2565 62.9683 65.2565 64.4289" fill="none" opacity="1" stroke="#222e39" stroke-linecap="round" stroke-linejoin="round" stroke-width="1"/>
<path d="M69.1769 60.1386C67.9719 58.3311 67.0478 61.5902 67.7344 62.5056C68.392 63.3823 69.5073 62.3182 69.6207 61.581C69.66 61.3251 69.6207 60.5454 69.6207 60.8043C69.6207 64.7978 73.8314 73.5244 66.5139 69.8656" fill="none" opacity="1" stroke="#222e39" stroke-linecap="round" stroke-linejoin="round" stroke-width="1"/>
<path d="M77.9053 60.0646C77.6416 58.7461 77.1024 65.0468 78.0533 64.096C78.2996 63.8496 78.4324 60.0138 79.4217 60.5084C79.8351 60.7152 79.7849 62.4092 79.8285 62.8015C79.8711 63.1845 79.9765 64.3334 79.9765 63.9481C79.9765 58.6928 82.3435 60.2282 82.3435 64.6878" fill="none" opacity="1" stroke="#222e39" stroke-linecap="round" stroke-linejoin="round" stroke-width="1"/>
<path d="M84.9325 62.2098C84.6397 62.1122 87.1534 61.7498 86.7817 61.2851C84.9869 59.0417 83.5248 63.0755 84.5256 64.5768C85.2654 65.6864 87.3395 64.9346 87.6324 63.7631" fill="none" opacity="1" stroke="#222e39" stroke-linecap="round" stroke-linejoin="round" stroke-width="1"/>
<path d="M89.1857 60.9153C88.6492 60.5934 93.5227 60.5892 93.2541 60.6564" fill="none" opacity="1" stroke="#222e39" stroke-linecap="round" stroke-linejoin="round" stroke-width="1"/>
<path d="M90.887 57.5127C90.4208 56.8133 91.0211 59.1886 91.072 60.0276C91.1572 61.4346 91.1481 62.8429 91.3309 64.2439C91.3721 64.5602 91.6267 66.363 91.6267 65.7233" fill="none" opacity="1" stroke="#222e39" stroke-linecap="round" stroke-linejoin="round" stroke-width="1"/>
<path d="M94.4006 61.8769C94.0157 60.7222 94.3001 66.5901 94.8444 65.5014C95.0472 65.0958 96.158 58.4207 97.4704 62.3577" fill="none" opacity="1" stroke="#222e39" stroke-linecap="round" stroke-linejoin="round" stroke-width="1"/>
<path d="M99.4306 60.8413C99.6862 61.8637 99.4057 63.0809 99.4675 64.133C99.4833 64.4 99.5415 65.8793 99.5415 65.4275" fill="none" opacity="1" stroke="#222e39" stroke-linecap="round" stroke-linejoin="round" stroke-width="1"/>
<path d="M99.3566 59.0291C99.3319 59.0291 99.3073 59.0291 99.2826 59.0291" fill="none" opacity="1" stroke="#222e39" stroke-linecap="round" stroke-linejoin="round" stroke-width="1"/>
<path d="M103.906 61.1372C102.196 57.7174 102.591 69.203 105.089 64.2069" fill="none" opacity="1" stroke="#222e39" stroke-linecap="round" stroke-linejoin="round" stroke-width="1"/>
<path d="M107.937 61.2112C108.761 59.5643 105.62 60.2885 106.014 62.0618C106.229 63.0312 108.615 61.7936 109.158 62.9864C110.01 64.8628 108.353 65.8386 106.717 65.0206" fill="none" opacity="1" stroke="#222e39" stroke-linecap="round" stroke-linejoin="round" stroke-width="1"/>
<path d="M116.567 57.9999C112.843 52.889 107.854 47.3623 109.2 41.5109C111.605 31.056 120.054 22.8887 128.407 18.3499C129.241 17.897 136.513 12.8618 136.827 13.203C138.182 14.6756 137.441 19.1598 137.441 21.0187C137.441 34.5559 135.547 38.1474 127.706 48.3734C126.769 49.5949 117.832 59.7361 116.567 57.9999Z" fill="#222e39" fill-rule="nonzero" opacity="1" stroke="#222e39" stroke-linecap="round" stroke-linejoin="round" stroke-width="1"/>
<path d="M121.778 59.5097C122.084 58.1539 127.702 52.5449 128.998 51.4177C131.544 49.2045 136.561 41.096 139.03 35.9059C140.424 32.9776 139.648 32.5855 144.301 29.5673C145.662 28.6849 148.349 26.0974 149.125 26.3082C150.623 26.7153 147.913 38.7797 147.681 40.0399C146.377 47.1242 145.208 53.0277 142.443 56.3286C140.855 58.2246 139.857 57.5591 135.857 58.2836C134.176 58.5881 121.511 60.6876 121.778 59.5097Z" fill="#222e39" fill-rule="nonzero" opacity="1" stroke="#222e39" stroke-linecap="round" stroke-linejoin="round" stroke-width="1"/>
<path d="M140.251 29.352C140.141 29.3235 139.56 29.2499 139.699 26.5957C139.738 25.8534 139.819 24.8747 139.851 23.5653C139.942 19.821 139.482 13.1686 140.056 12.2078C140.295 11.8062 140.919 12.1706 142.382 12.9252C143.979 13.7488 144.425 13.8339 144.713 14.5911C145.181 15.8209 146.772 18.4349 147.692 20.5109C148.233 21.7329 148.625 22.4181 148.195 23.4651C147.765 24.5151 144.038 27.0494 144.038 27.0494C143.459 27.3718 142.836 27.9783 142.216 28.4332C140.517 29.6813 140.836 29.5035 140.251 29.352Z" fill="#1a6db5" fill-rule="nonzero" opacity="1" stroke="#1a6db5" stroke-linecap="round" stroke-linejoin="round" stroke-width="1"/>
</g>
</svg>
