<?xml version="1.0" encoding="UTF-8" standalone="no"?>
<!DOCTYPE svg PUBLIC "-//W3C//DTD SVG 1.1//EN" "http://www.w3.org/Graphics/SVG/1.1/DTD/svg11.dtd">
<!-- Created with Vectornator (http://vectornator.io/) -->
<svg height="80.0px" stroke-miterlimit="10" style="fill-rule:nonzero;clip-rule:evenodd;stroke-linecap:round;stroke-linejoin:round;" version="1.1" viewBox="0 0 160 80" width="160.0px" xml:space="preserve" xmlns="http://www.w3.org/2000/svg" xmlns:xlink="http://www.w3.org/1999/xlink">
<defs/>
<g id="Layer-1">
<path d="M8.08159 19.5186C7.39504 17.4589 8.32304 23.8541 8.42391 26.0228C8.53749 28.4647 10.8983 43.3076 10.4779 39.9441" fill="none" opacity="1" stroke="#1a6db5" stroke-linecap="round" stroke-linejoin="round" stroke-width="1"/>
<path d="M8.42391 18.4916C25.2829 18.4916 25.2691 44.0412 11.619 40.6287" fill="none" opacity="1" stroke="#1a6db5" stroke-linecap="round" stroke-linejoin="round" stroke-width="1"/>
<path d="M24.285 36.4067C30.7628 36.4067 25.1045 28.4088 23.7145 36.749C23.5226 37.9005 23.5273 38.8851 24.0568 39.9441C25.598 43.0265 30.4514 41.2999 31.3598 38.5748" fill="none" opacity="1" stroke="#1a6db5" stroke-linecap="round" stroke-linejoin="round" stroke-width="1"/>
<path d="M32.8432 33.4399C33.9065 35.2121 35.9115 43.9099 37.2934 39.4876C37.9431 37.4085 39.005 35.2918 39.005 33.0975" fill="none" opacity="1" stroke="#1a6db5" stroke-linecap="round" stroke-linejoin="round" stroke-width="1"/>
<path d="M49.6172 19.5186C49.6172 18.0712 49.8454 22.4074 49.8454 23.8547C49.8454 28.0495 49.9765 32.2322 50.4159 36.4067C50.5003 37.2087 51.0341 41.5604 51.1006 41.4275" fill="none" opacity="1" stroke="#1a6db5" stroke-linecap="round" stroke-linejoin="round" stroke-width="1"/>
<path d="M50.9865 21.002C51.5258 19.384 57.5435 18.8699 57.9471 20.8879C58.5959 24.1318 56.3083 28.5295 53.8392 30.5871C53.6985 30.7044 52.2539 31.8668 52.1275 31.6141C52.0176 31.3943 57.0176 30.841 57.9471 31.9565C61.5037 36.2244 57.2098 44.7103 51.557 41.8839" fill="none" opacity="1" stroke="#1a6db5" stroke-linecap="round" stroke-linejoin="round" stroke-width="1"/>
<path d="M63.3102 20.2033C63.3102 18.4899 63.5384 23.6248 63.5384 25.3381C63.5384 29.0193 64.0302 32.6287 64.2231 36.2926C64.2797 37.3693 64.6416 41.3128 64.6795 41.1993" fill="none" opacity="1" stroke="#1a6db5" stroke-linecap="round" stroke-linejoin="round" stroke-width="1"/>
<path d="M69.8144 32.584C68.0102 33.8562 68.6605 41.3676 72.0966 40.7428C79.8147 39.3395 74.1769 29.5079 69.8144 32.584Z" fill="none" opacity="1" stroke="#1a6db5" stroke-linecap="round" stroke-linejoin="round" stroke-width="1"/>
<path d="M82.4805 33.4399C82.4805 29.8418 75.7923 34.9822 78.4867 38.5748C81.1188 42.0843 86.2002 36.1326 84.1921 34.1245C82.9893 32.9217 84.885 37.4586 85.105 39.1453C85.4303 41.6395 85.8083 44.268 85.6755 46.7906C85.2924 54.0704 80.5567 53.6452 75.5198 51.1267" fill="none" opacity="1" stroke="#1a6db5" stroke-linecap="round" stroke-linejoin="round" stroke-width="1"/>
<path d="M8.17817 57.1718C7.64608 55.1455 7.81739 65.0273 9.11916 63.3859" fill="none" opacity="1" stroke="#222e39" stroke-linecap="round" stroke-linejoin="round" stroke-width="1"/>
<path d="M8.4224 56.8638C7.43252 56.6561 11.1982 55.9832 11.4551 56.9614C11.7747 58.1785 8.42106 60.977 9.20296 59.9911C11.4231 57.1916 15.4201 64.6183 9.56727 63.3901" fill="none" opacity="1" stroke="#222e39" stroke-linecap="round" stroke-linejoin="round" stroke-width="1"/>
<path d="M14.1322 60.0377C12.9461 65.6898 21.2233 62.501 17.5493 59.5873" fill="none" opacity="1" stroke="#222e39" stroke-linecap="round" stroke-linejoin="round" stroke-width="1"/>
<path d="M20.619 58.4598C20.6293 58.3974 20.6396 58.335 20.6499 58.2726" fill="none" opacity="1" stroke="#222e39" stroke-linecap="round" stroke-linejoin="round" stroke-width="1"/>
<path d="M20.7149 60.2062C20.5065 61.4673 20.2297 65.0665 20.9801 64.0317" fill="none" opacity="1" stroke="#222e39" stroke-linecap="round" stroke-linejoin="round" stroke-width="1"/>
<path d="M23.7642 54.9415C23.9275 53.9532 23.7653 56.9456 23.7164 57.9461C23.6277 59.7589 23.6557 61.76 23.9424 63.5598" fill="none" opacity="1" stroke="#222e39" stroke-linecap="round" stroke-linejoin="round" stroke-width="1"/>
<path d="M28.4087 60.5803C24.935 57.3326 27.6584 66.322 29.2425 62.1282" fill="none" opacity="1" stroke="#222e39" stroke-linecap="round" stroke-linejoin="round" stroke-width="1"/>
<path d="M29.0567 55.4956C28.811 54.701 28.9926 57.1598 29.0289 57.9908C29.083 59.2261 29.1329 60.4513 29.2523 61.6811C29.2716 61.8795 29.4628 63.5106 29.5659 62.8867" fill="none" opacity="1" stroke="#222e39" stroke-linecap="round" stroke-linejoin="round" stroke-width="1"/>
<path d="M31.7237 59.5257C31.643 60.0136 31.8616 62.9794 31.8011 62.9356" fill="none" opacity="1" stroke="#222e39" stroke-linecap="round" stroke-linejoin="round" stroke-width="1"/>
<path d="M31.5957 57.1971C31.6339 57.2248 31.672 57.2525 31.7102 57.2801" fill="none" opacity="1" stroke="#222e39" stroke-linecap="round" stroke-linejoin="round" stroke-width="1"/>
<path d="M34.1348 58.8986C33.7738 57.7311 33.7758 63.5365 34.4933 62.5472C35.0272 61.8109 36.4774 55.0863 37.474 60.4119C37.5699 60.9239 37.6333 61.3876 37.5489 61.8984" fill="none" opacity="1" stroke="#222e39" stroke-linecap="round" stroke-linejoin="round" stroke-width="1"/>
<path d="M41.2371 60.1364C41.5759 58.0863 38.5479 58.8988 39.8558 61.1259C40.6415 62.4639 41.4715 59.6382 41.5068 59.6682C43.1975 61.1044 44.5316 67.3723 43.9945 69.4373C43.547 71.1581 40.7587 69.3738 40.1675 68.5485" fill="none" opacity="1" stroke="#222e39" stroke-linecap="round" stroke-linejoin="round" stroke-width="1"/>
<path d="M49.3319 57.3078C49.377 57.2939 49.422 57.28 49.467 57.2661" fill="none" opacity="1" stroke="#222e39" stroke-linecap="round" stroke-linejoin="round" stroke-width="1"/>
<path d="M49.5331 59.969C49.7192 58.8433 49.859 62.2635 49.673 63.3892" fill="none" opacity="1" stroke="#222e39" stroke-linecap="round" stroke-linejoin="round" stroke-width="1"/>
<path d="M51.4033 59.1243C51.6095 60.0609 51.5756 61.0273 51.6359 61.983C51.8348 65.1339 53.424 56.1737 54.1187 60.5345C54.2938 61.6341 54.3353 62.7144 54.1544 63.8093" fill="none" opacity="1" stroke="#222e39" stroke-linecap="round" stroke-linejoin="round" stroke-width="1"/>
<path d="M62.3652 59.7923C61.954 61.8483 62.5329 64.4718 62.7404 66.5461C62.7848 66.9902 63.1156 69.7783 63.1156 68.9849" fill="none" opacity="1" stroke="#000000" stroke-linecap="round" stroke-linejoin="round" stroke-width="1"/>
<path d="M62.0838 59.7923C62.0838 57.3185 71.0686 63.1692 63.1156 63.1692" fill="none" opacity="1" stroke="#000000" stroke-linecap="round" stroke-linejoin="round" stroke-width="1"/>
<path d="M68.0871 59.6985C67.2009 63.2432 71.1826 64.7457 71.1826 60.2613" fill="none" opacity="1" stroke="#000000" stroke-linecap="round" stroke-linejoin="round" stroke-width="1"/>
<path d="M72.6834 56.134C72.6834 57.8724 72.9648 63.3514 72.9648 63.0754" fill="none" opacity="1" stroke="#000000" stroke-linecap="round" stroke-linejoin="round" stroke-width="1"/>
<path d="M73.0586 59.8861C76.8668 59.8861 76.4976 64.8418 73.34 63.263" fill="none" opacity="1" stroke="#000000" stroke-linecap="round" stroke-linejoin="round" stroke-width="1"/>
<path d="M77.6549 56.7906C77.6549 56.6763 78.0965 58.7749 78.124 59.3233C78.2048 60.9406 78.124 62.5806 78.124 64.201" fill="none" opacity="1" stroke="#000000" stroke-linecap="round" stroke-linejoin="round" stroke-width="1"/>
<path d="M80.8442 59.6985C80.8442 60.6056 81.3132 64.0217 81.3132 63.6382" fill="none" opacity="1" stroke="#000000" stroke-linecap="round" stroke-linejoin="round" stroke-width="1"/>
<path d="M80.8061 57.7549L80.7406 57.7035L80.6751 57.6522L80.5947 57.6738L80.5798 57.7468L80.5211 57.8488L80.4988 57.9582L80.4839 58.0311L80.542 58.119L80.644 58.1777L80.7244 58.1561L80.7757 58.0906L80.8271 58.0251L80.8419 57.9521L80.8568 57.8792L80.8791 57.7698L80.8575 57.6894L80.792 57.638" fill="none" opacity="1" stroke="#000000" stroke-linecap="round" stroke-linejoin="round" stroke-width="1"/>
<path d="M85.7128 59.5907C84.6812 58.0309 81.7796 63.0062 84.9241 63.6471C85.6125 63.7874 86.4639 63.1758 86.6076 62.4705" fill="none" opacity="1" stroke="#000000" stroke-linecap="round" stroke-linejoin="round" stroke-width="1"/>
<path d="M101.326 36.4166C101.426 35.7674 101.518 34.3924 101.518 34.0216C101.518 30.3356 101.055 23.7957 104.44 21.2566C110.793 16.4921 131.56 17.7784 138.993 20.7517C146.639 23.8101 145.895 51.4707 142.383 57.3241C137.615 65.2708 118.754 63.0845 111.581 61.2915C109.096 60.6701 103.26 61.4441 102.132 58.6225C99.4444 51.9043 101.266 43.4827 101.266 36.4049C101.266 36.0622 101.267 36.8017 101.326 36.4166Z" fill="none" opacity="1" stroke="#1a6db5" stroke-linecap="round" stroke-linejoin="round" stroke-width="1"/>
<path d="M115.325 33.247C115.491 32.8328 113.867 35.1582 113.433 35.6928C113.021 36.1999 109.227 39.7759 109.418 40.5383C109.905 42.4869 115.637 44.2655 117.171 45.7992" fill="none" opacity="1" stroke="#222e39" stroke-linecap="round" stroke-linejoin="round" stroke-width="1"/>
<path d="M124.707 28.5568C121.281 35.4093 122.27 44.4165 118.862 51.2334" fill="none" opacity="1" stroke="#222e39" stroke-linecap="round" stroke-linejoin="round" stroke-width="1"/>
<path d="M127.319 33.7803C127.319 33.6543 132.684 37.1761 133.899 37.9051C134.015 37.9748 135.792 39.4544 135.792 39.4544C134.883 41.725 129.677 44.5202 127.692 45.5124" fill="none" opacity="1" stroke="#222e39" stroke-linecap="round" stroke-linejoin="round" stroke-width="1"/>
</g>
</svg>
