<?xml version="1.0" encoding="UTF-8" standalone="no"?>
<svg stroke-miterlimit="10" style="fill-rule:nonzero;clip-rule:evenodd;stroke-linecap:round;stroke-linejoin:round;" version="1.1" viewBox="97 15 51 52" xmlns="http://www.w3.org/2000/svg">
<g>
<path d="M101.326 36.4166C101.426 35.7674 101.518 34.3924 101.518 34.0216C101.518 30.3356 101.055 23.7957 104.44 21.2566C110.793 16.4921 131.56 17.7784 138.993 20.7517C146.639 23.8101 145.895 51.4707 142.383 57.3241C137.615 65.2708 118.754 63.0845 111.581 61.2915C109.096 60.6701 103.26 61.4441 102.132 58.6225C99.4444 51.9043 101.266 43.4827 101.266 36.4049C101.266 36.0622 101.267 36.8017 101.326 36.4166Z" fill="none" opacity="1" stroke="#1a6db5" stroke-linecap="round" stroke-linejoin="round" stroke-width="1"/>
<path d="M115.325 33.247C115.491 32.8328 113.867 35.1582 113.433 35.6928C113.021 36.1999 109.227 39.7759 109.418 40.5383C109.905 42.4869 115.637 44.2655 117.171 45.7992" fill="none" opacity="1" stroke="#222e39" stroke-linecap="round" stroke-linejoin="round" stroke-width="1"/>
<path d="M124.707 28.5568C121.281 35.4093 122.27 44.4165 118.862 51.2334" fill="none" opacity="1" stroke="#222e39" stroke-linecap="round" stroke-linejoin="round" stroke-width="1"/>
<path d="M127.319 33.7803C127.319 33.6543 132.684 37.1761 133.899 37.9051C134.015 37.9748 135.792 39.4544 135.792 39.4544C134.883 41.725 129.677 44.5202 127.692 45.5124" fill="none" opacity="1" stroke="#222e39" stroke-linecap="round" stroke-linejoin="round" stroke-width="1"/>
</g>
</svg>
