<?xml version="1.0" encoding="UTF-8" standalone="no"?>
<svg stroke-miterlimit="10" style="fill-rule:nonzero;clip-rule:evenodd;stroke-linecap:round;stroke-linejoin:round;" version="1.1" viewBox="98 6 55 66" xmlns="http://www.w3.org/2000/svg">
<g>
<path d="M102.655 39.2845C102.784 35.7273 103.056 33.193 103.056 30.8494C103.056 27.3042 103.9 18.3539 106.493 15.5134C111.463 10.0702 140.654 8.69955 147.607 13.4589C151.421 16.0696 150.081 20.9503 150.349 25.2194C150.749 31.5808 151.018 61.888 145.551 65.6303C139.531 69.7508 112.561 67.7677 105.387 66.1307C100.627 65.0446 101.679 46.5221 102.371 42.7349C102.444 42.3338 102.648 39.4954 102.655 39.2845Z" fill="none" opacity="1" stroke="#1a6db5" stroke-linecap="round" stroke-linejoin="round" stroke-width="1"/>
<path d="M103.053 42.7239C103.699 41.0152 105.02 39.2071 105.765 38.187C107.165 36.2706 109.955 33.9808 112.737 34.2982C117.382 34.8281 120.141 44.4608 124.228 41.6633C129.072 38.3478 132.643 20.9272 139.399 22.1605C142.464 22.7199 148.543 33.9184 149.083 35.8891C149.779 38.4285 149.617 42.0107 149.348 46.1222C149.176 48.7518 148.893 51.954 148.398 55.2773C147.818 59.1592 146.962 62.0167 146.178 63.8765C144.241 68.4724 119.942 67.6731 113.189 66.6458C110.48 66.2338 108.089 66.528 105.055 65.4085C103.869 64.971 102.647 60.7585 102.547 55.8102C102.435 50.3121 101.958 45.6226 103.053 42.7239Z" fill="#222e39" fill-rule="nonzero" opacity="1" stroke="#222e39" stroke-linecap="round" stroke-linejoin="round" stroke-width="1"/>
<path d="M118.515 22.6318C118.556 22.185 117.934 22.816 117.837 22.9264C115.11 26.0374 118.275 31.6539 122.808 29.2899C127.429 26.8799 124.218 21.4211 119.451 22.0426C119.124 22.0852 118.489 22.9089 118.515 22.6318Z" fill="#222e39" fill-rule="nonzero" opacity="1" stroke="#222e39" stroke-linecap="round" stroke-linejoin="round" stroke-width="1"/>
</g>
</svg>
