<?xml version="1.0" encoding="UTF-8" standalone="no"?>
<!DOCTYPE svg PUBLIC "-//W3C//DTD SVG 1.1//EN" "http://www.w3.org/Graphics/SVG/1.1/DTD/svg11.dtd">
<!-- Created with Vectornator (http://vectornator.io/) -->
<svg height="80.0px" stroke-miterlimit="10" style="fill-rule:nonzero;clip-rule:evenodd;stroke-linecap:round;stroke-linejoin:round;" version="1.1" viewBox="0 0 160 80" width="160.0px" xml:space="preserve" xmlns="http://www.w3.org/2000/svg" xmlns:xlink="http://www.w3.org/1999/xlink">
<defs/>
<clipPath id="ArtboardFrame">
<rect height="80" width="160" x="0" y="0"/>
</clipPath>
<g clip-path="url(#ArtboardFrame)" id="Layer-1">
<path d="M27.183 23.0201C27.183 1.8055 0.765996 29.8226 13.9135 42.9701C17.7861 46.8427 27.266 45.7747 25.4443 38.852C22.2018 26.5306 10.212 37.1866 22.4243 34.6424C24.3467 34.2419 28.3425 33.0784 30.203 34.0933C34.2296 36.2896 26.0913 48.827 29.1963 48.827" fill="none" opacity="1" stroke="#1a6db5" stroke-linecap="round" stroke-linejoin="round" stroke-width="1"/>
<path d="M39.8704 36.2345C39.8704 29.214 30.3734 41.6147 35.7234 44.8247C38.8091 46.6761 39.9515 40.7446 40.0678 38.9992C40.1226 38.1782 40.0678 35.7079 40.0678 36.5307C40.0678 37.9238 39.6098 49.1335 43.6224 45.1209" fill="none" opacity="1" stroke="#1a6db5" stroke-linecap="round" stroke-linejoin="round" stroke-width="1"/>
<path d="M47.2757 19.3504C47.2757 19.1266 47.2936 21.2101 47.2757 21.6213C47.2127 23.0704 47.0221 24.515 46.9795 25.9658C46.8698 29.6961 48.3618 49.0861 48.3618 46.207" fill="none" opacity="1" stroke="#1a6db5" stroke-linecap="round" stroke-linejoin="round" stroke-width="1"/>
<path d="M52.4101 16.8819C55.3569 21.3022 52.1732 33.1947 52.6075 38.4068C52.7596 40.2318 54.2861 48.3985 54.2861 47.3919" fill="none" opacity="1" stroke="#1a6db5" stroke-linecap="round" stroke-linejoin="round" stroke-width="1"/>
<path d="M57.6432 39.7891C57.1397 38.7822 62.7653 38.5546 63.0737 37.3206C63.7989 34.42 55.9063 34.5024 57.0507 41.3689C57.625 44.8142 65.6409 45.9748 65.6409 42.2575" fill="none" opacity="1" stroke="#1a6db5" stroke-linecap="round" stroke-linejoin="round" stroke-width="1"/>
<path d="M66.3321 38.2093C66.3321 40.1985 68.0106 43.9361 68.0106 43.9361C68.0106 43.9361 67.0136 38.2105 68.3069 35.8396C69.4864 33.6772 71.4583 35.4179 73.145 35.8396" fill="none" opacity="1" stroke="#1a6db5" stroke-linecap="round" stroke-linejoin="round" stroke-width="1"/>
<path d="M76.2059 36.0371C76.2059 37.8173 76.0729 39.4243 76.897 41.0727C80.7049 48.6883 85.4749 36.3302 83.1175 35.7408C82.7279 35.6434 82.9119 37.9099 82.92 38.0118C83.3324 43.1657 86.8236 49.0223 85.8822 54.1061C84.8596 59.6282 75.8143 60.0326 71.9601 57.4632" fill="none" opacity="1" stroke="#1a6db5" stroke-linecap="round" stroke-linejoin="round" stroke-width="1"/>
<path d="M102.655 39.2845C102.784 35.7273 103.056 33.193 103.056 30.8494C103.056 27.3042 103.9 18.3539 106.493 15.5134C111.463 10.0702 140.654 8.69955 147.607 13.4589C151.421 16.0696 150.081 20.9503 150.349 25.2194C150.749 31.5808 151.018 61.888 145.551 65.6303C139.531 69.7508 112.561 67.7677 105.387 66.1307C100.627 65.0446 101.679 46.5221 102.371 42.7349C102.444 42.3338 102.648 39.4954 102.655 39.2845Z" fill="none" opacity="1" stroke="#1a6db5" stroke-linecap="round" stroke-linejoin="round" stroke-width="1"/>
<path d="M9.87713 61.4681C9.78776 61.2894 10.1847 68.4445 10.1847 65.3641" fill="none" opacity="1" stroke="#222e39" stroke-linecap="round" stroke-linejoin="round" stroke-width="1"/>
<path d="M9.97966 59.9302C9.97966 57.9714 14.0584 60.452 13.8757 61.3656C13.7522 61.983 11.0887 62.0461 10.4923 62.4934" fill="none" opacity="1" stroke="#222e39" stroke-linecap="round" stroke-linejoin="round" stroke-width="1"/>
<path d="M15.9262 60.0328C15.9262 62.8013 14.4771 66.7153 16.6439 63.8262C18.0286 61.9799 18.4893 65.9908 18.4893 66.7995" fill="none" opacity="1" stroke="#222e39" stroke-linecap="round" stroke-linejoin="round" stroke-width="1"/>
<path d="M19.8222 64.3389C20.7863 68.1952 23.5151 64.7113 21.155 63.8262C20.8898 63.7268 19.7375 63.6105 20.2323 63.3136C21.9119 62.3058 28.035 62.6984 26.0763 62.6984" fill="none" opacity="1" stroke="#222e39" stroke-linecap="round" stroke-linejoin="round" stroke-width="1"/>
<path d="M23.4106 60.0328C23.4106 59.89 24.516 66.3203 24.7434 65.9793" fill="none" opacity="1" stroke="#222e39" stroke-linecap="round" stroke-linejoin="round" stroke-width="1"/>
<path d="M27.8192 63.6212C24.8016 68.1605 32.8764 64.7633 29.9723 63.5187C29.2627 63.2145 28.237 62.9927 27.8192 63.6212Z" fill="none" opacity="1" stroke="#222e39" stroke-linecap="round" stroke-linejoin="round" stroke-width="1"/>
<path d="M32.3304 63.2111C32.3304 62.0276 30.9758 63.2973 31.8177 63.9288C34.2781 65.774 34.7883 66.2869 30.895 66.2869" fill="none" opacity="1" stroke="#222e39" stroke-linecap="round" stroke-linejoin="round" stroke-width="1"/>
<path d="M41.3014 63.1086C40.0694 64.3502 41.7402 66.3095 42.8905 65.1591C44.1437 63.906 41.9446 62.4603 41.3014 63.1086Z" fill="none" opacity="1" stroke="#222e39" stroke-linecap="round" stroke-linejoin="round" stroke-width="1"/>
<path d="M46.5815 60.1353C46.5815 59.3506 46.5026 55.7503 45.0436 58.0848C43.663 60.2938 46.815 64.9256 45.6588 66.0818" fill="none" opacity="1" stroke="#222e39" stroke-linecap="round" stroke-linejoin="round" stroke-width="1"/>
<path d="M43.3007 64.4414C44.6938 63.5126 47.2128 63.3136 48.8371 63.3136" fill="none" opacity="1" stroke="#222e39" stroke-linecap="round" stroke-linejoin="round" stroke-width="1"/>
<path d="M52.6305 62.9035C52.6305 68.0603 51.9922 65.4899 53.9634 63.5187C54.6527 62.8293 54.9104 66.5718 55.2962 65.6717C55.414 65.3968 56.2595 63.1904 56.6291 63.3136C57.4355 63.5824 57.0821 65.5906 57.8594 65.9793" fill="none" opacity="1" stroke="#222e39" stroke-linecap="round" stroke-linejoin="round" stroke-width="1"/>
<path d="M58.8846 63.6212C58.2568 65.5048 60.4823 65.1122 61.0377 63.7237C61.0944 63.5818 61.1944 63.1686 61.2427 63.3136C62.4728 67.0037 61.2642 72.6435 56.7316 72.6435" fill="none" opacity="1" stroke="#222e39" stroke-linecap="round" stroke-linejoin="round" stroke-width="1"/>
<path d="M70.0087 65.723C69.3491 64.5421 69.6601 70.9826 70.265 69.7727C70.7888 68.7252 69.579 64.9224 70.06 64.4414C70.9169 63.5845 73.5015 65.7827 73.1358 66.697C72.5432 68.1784 70.3138 66.269 70.0087 65.723Z" fill="none" opacity="1" stroke="#222e39" stroke-linecap="round" stroke-linejoin="round" stroke-width="1"/>
<path d="M76.6216 65.4667C76.6216 63.2756 74.2004 67.1765 75.3913 67.4146C76.3392 67.6042 76.7583 64.6806 77.4419 65.3641C77.9899 65.9122 77.2439 67.5172 78.5696 67.5172" fill="none" opacity="1" stroke="#222e39" stroke-linecap="round" stroke-linejoin="round" stroke-width="1"/>
<path d="M82.0452 64.4201C79.8939 62.9859 82.0427 66.818 81.705 66.9715C81.4997 67.0648 81.0759 67.2268 80.8886 67.0395" fill="none" opacity="1" stroke="#222e39" stroke-linecap="round" stroke-linejoin="round" stroke-width="1"/>
<path d="M85.0048 64.8283C85.3961 64.0457 83.6803 64.4948 83.9503 65.3045C83.9631 65.343 87.609 68.023 83.8822 67.2776" fill="none" opacity="1" stroke="#222e39" stroke-linecap="round" stroke-linejoin="round" stroke-width="1"/>
<path d="M86.8758 64.8283C86.8758 64.0912 86.8758 67.7766 86.8758 67.0395" fill="none" opacity="1" stroke="#222e39" stroke-linecap="round" stroke-linejoin="round" stroke-width="1"/>
<path d="M86.9779 63.2634C86.9779 63.2294 86.9779 63.1954 86.9779 63.1614" fill="none" opacity="1" stroke="#222e39" stroke-linecap="round" stroke-linejoin="round" stroke-width="1"/>
<path d="M89.2741 64.5051C88.5769 64.4749 88.4117 66.6487 89.4272 66.7333C90.9648 66.8615 90.6557 64.5649 89.2741 64.5051Z" fill="none" opacity="1" stroke="#222e39" stroke-linecap="round" stroke-linejoin="round" stroke-width="1"/>
<path d="M92.5569 64.216C91.7112 63.7931 91.8619 67.8852 92.2848 67.0395C92.3414 66.9263 92.9729 63.7474 93.6115 64.386C94.2083 64.9829 93.2868 67.5002 93.8837 66.9034" fill="none" opacity="1" stroke="#222e39" stroke-linecap="round" stroke-linejoin="round" stroke-width="1"/>
<path d="M96.9453 64.7262C96.9453 63.6587 95.7104 64.7906 95.7887 65.3386C95.8269 65.6062 99.9394 66.9374 95.5165 66.9374" fill="none" opacity="1" stroke="#222e39" stroke-linecap="round" stroke-linejoin="round" stroke-width="1"/>
<path d="M121.458 91.4812C120.864 91.5725 120.27 91.6639 119.676 91.7553" fill="none" opacity="1" stroke="#222e39" stroke-linecap="round" stroke-linejoin="round" stroke-width="1"/>
<path d="M103.053 42.7239C103.699 41.0152 105.02 39.2071 105.765 38.187C107.165 36.2706 109.955 33.9808 112.737 34.2982C117.382 34.8281 120.141 44.4608 124.228 41.6633C129.072 38.3478 132.643 20.9272 139.399 22.1605C142.464 22.7199 148.543 33.9184 149.083 35.8891C149.779 38.4285 149.617 42.0107 149.348 46.1222C149.176 48.7518 148.893 51.954 148.398 55.2773C147.818 59.1592 146.962 62.0167 146.178 63.8765C144.241 68.4724 119.942 67.6731 113.189 66.6458C110.48 66.2338 108.089 66.528 105.055 65.4085C103.869 64.971 102.647 60.7585 102.547 55.8102C102.435 50.3121 101.958 45.6226 103.053 42.7239Z" fill="#222e39" fill-rule="nonzero" opacity="1" stroke="#222e39" stroke-linecap="round" stroke-linejoin="round" stroke-width="1"/>
<path d="M118.515 22.6318C118.556 22.185 117.934 22.816 117.837 22.9264C115.11 26.0374 118.275 31.6539 122.808 29.2899C127.429 26.8799 124.218 21.4211 119.451 22.0426C119.124 22.0852 118.489 22.9089 118.515 22.6318Z" fill="#222e39" fill-rule="nonzero" opacity="1" stroke="#222e39" stroke-linecap="round" stroke-linejoin="round" stroke-width="1"/>
</g>
</svg>
