<?xml version="1.0" encoding="UTF-8" standalone="no"?>
<!DOCTYPE svg PUBLIC "-//W3C//DTD SVG 1.1//EN" "http://www.w3.org/Graphics/SVG/1.1/DTD/svg11.dtd">
<!-- Created with Vectornator (http://vectornator.io/) -->
<svg height="80.0px" stroke-miterlimit="10" style="fill-rule:nonzero;clip-rule:evenodd;stroke-linecap:round;stroke-linejoin:round;" version="1.1" viewBox="0 0 160 80" width="160.0px" xml:space="preserve" xmlns="http://www.w3.org/2000/svg" xmlns:xlink="http://www.w3.org/1999/xlink">
<defs/>
<g id="Layer-1">
<path d="M20.8488 17.4009C20.8488 19.9669 22.55 47.7847 21.6845 39.1303" fill="none" opacity="1" stroke="#1a6db5" stroke-linecap="round" stroke-linejoin="round" stroke-width="1"/>
<path d="M20.2916 18.0973C20.2916 12.6839 28.3277 15.9656 28.9277 20.4653C29.4572 24.4366 27.2122 27.8876 23.7739 29.7978C23.1322 30.1543 21.6845 30.4943 21.6845 30.4943C21.6845 30.4943 23.6082 30.6596 24.4704 31.0514C29.479 33.3281 29.8461 39.9008 35.4744 41.7769" fill="none" opacity="1" stroke="#1a6db5" stroke-linecap="round" stroke-linejoin="round" stroke-width="1"/>
<path d="M39.3745 35.3695C38.238 37.6426 45.3916 29.3799 41.1853 29.3799C38.813 29.3799 35.4363 49.4759 46.6177 38.2946" fill="none" opacity="1" stroke="#1a6db5" stroke-linecap="round" stroke-linejoin="round" stroke-width="1"/>
<path d="M53.5823 33.1408C54.4809 28.6474 48.6879 30.6575 49.1249 33.2801C49.5589 35.8841 57.6572 33.3649 56.0895 38.8517C55.6167 40.5065 49.6821 42.0608 49.6821 39.9661" fill="none" opacity="1" stroke="#1a6db5" stroke-linecap="round" stroke-linejoin="round" stroke-width="1"/>
<path d="M61.6612 32.7229C61.6612 32.4326 61.104 35.3287 61.104 36.0659C61.104 38.0392 61.0556 42.0554 64.0291 42.0554C69.0783 42.0554 70.1902 34.459 68.4865 31.0514" fill="none" opacity="1" stroke="#1a6db5" stroke-linecap="round" stroke-linejoin="round" stroke-width="1"/>
<path d="M72.6652 33.2801C72.2604 34.0896 71.2764 40.9452 71.9687 41.6376C72.3099 41.9788 75.048 31.902 76.0082 32.8622C76.8242 33.6783 75.3652 39.8446 76.1475 40.1054C77.4157 40.5281 80.6048 26.6772 80.6048 35.2302C80.6048 36.2516 80.6048 37.2731 80.6048 38.2946C80.6048 39.4185 80.7441 40.5155 80.7441 41.6376" fill="none" opacity="1" stroke="#1a6db5" stroke-linecap="round" stroke-linejoin="round" stroke-width="1"/>
<path d="M85.8979 36.6231C87.1448 34.7527 90.0422 35.961 91.3302 34.673C94.2086 31.7946 80.6202 29.1784 83.9478 39.8268C85.5669 45.0079 94.9518 42.3122 94.9518 37.7374" fill="none" opacity="1" stroke="#1a6db5" stroke-linecap="round" stroke-linejoin="round" stroke-width="1"/>
<path d="M108.218 19.096C111.985 15.9664 115.347 12.2047 119.061 9.02091C119.44 8.69617 119.814 7.78601 120.417 8.38839C121.513 9.48418 121.665 12.5165 121.862 13.9003C122.059 15.2774 123.62 19.643 122.314 20.9484C120.4 22.8623 106.886 20.2025 108.218 19.096Z" fill="#222e39" fill-rule="nonzero" opacity="1" stroke="#222e39" stroke-linecap="round" stroke-linejoin="round" stroke-width="1"/>
<path d="M124.347 9.20163C123.87 8.20081 125.488 8.48871 126.29 8.38839C130.349 7.88099 147.463 6.91055 149.874 9.9245C154.283 15.4357 152.63 28.4388 152.314 34.7734C152.086 39.3177 152.561 56.8223 150.055 60.1645C146.322 65.1411 116.648 66.5673 110.387 65.315C98.6274 62.9631 104.145 42.2361 105.146 34.2313C105.238 33.4943 105.948 23.5292 106.592 23.2074C111.112 20.947 120.631 28.0219 124.483 23.2074C126.697 20.44 125.745 12.1358 124.347 9.20163Z" fill="none" opacity="1" stroke="#1a6db5" stroke-linecap="round" stroke-linejoin="round" stroke-width="1"/>
<path d="M136.834 15.4781C131.263 15.9459 131.272 25.0805 138.598 24.1233C145.168 23.265 142.518 15.0008 136.834 15.4781Z" fill="#222e39" fill-rule="nonzero" opacity="1" stroke="#222e39" stroke-linecap="round" stroke-linejoin="round" stroke-width="1"/>
<path d="M129.425 34.8638C126.408 27.6048 145.989 19.2371 145.989 35.677" fill="#222e39" fill-rule="nonzero" opacity="1" stroke="#222e39" stroke-linecap="round" stroke-linejoin="round" stroke-width="1"/>
<path d="M130.056 35.0445C135.086 35.0445 140.339 35.5867 145.268 35.5867" fill="none" opacity="1" stroke="#222e39" stroke-linecap="round" stroke-linejoin="round" stroke-width="1"/>
<path d="M108.745 40.0638C121.86 40.0638 134.941 40.6919 147.937 40.6919" fill="none" opacity="1" stroke="#222e39" stroke-linecap="round" stroke-linejoin="round" stroke-width="1"/>
<path d="M108.557 47.5378C121.751 47.5378 134.93 47.3494 148.125 47.3494" fill="none" opacity="1" stroke="#222e39" stroke-linecap="round" stroke-linejoin="round" stroke-width="1"/>
<path d="M109.688 54.8862C122.398 54.8862 135.284 55.1375 147.937 55.1375" fill="none" opacity="1" stroke="#222e39" stroke-linecap="round" stroke-linejoin="round" stroke-width="1"/>
<path d="M19.7789 51.8191C19.7789 53.6865 21.1898 61.4961 20.1541 57.3534" fill="none" opacity="1" stroke="#000000" stroke-linecap="round" stroke-linejoin="round" stroke-width="1"/>
<path d="M19.4975 50.8811C25.9473 50.8811 27.9404 59.2295 19.8727 59.2295" fill="none" opacity="1" stroke="#000000" stroke-linecap="round" stroke-linejoin="round" stroke-width="1"/>
<path d="M27.7052 56.3685C26.2318 57.9218 28.4745 60.2893 30.0972 58.6667C31.6435 57.1203 29.1732 54.8209 27.7052 56.3685Z" fill="none" opacity="1" stroke="#000000" stroke-linecap="round" stroke-linejoin="round" stroke-width="1"/>
<path d="M33.3802 56.0402C32.3697 56.0402 31.893 60.7212 35.8191 58.1039" fill="none" opacity="1" stroke="#000000" stroke-linecap="round" stroke-linejoin="round" stroke-width="1"/>
<path d="M37.3199 56.7906C36.3891 59.5831 41.7973 58.9917 40.2278 55.8526" fill="none" opacity="1" stroke="#000000" stroke-linecap="round" stroke-linejoin="round" stroke-width="1"/>
<path d="M42.8805 55.7603C42.568 54.8228 42.9241 58.7247 42.9241 58.7247C42.9241 58.7247 44.0529 55.9194 45.191 56.1091C46.068 56.2552 45.0854 59.3534 45.7141 58.7247C47.6705 56.7682 48.2861 54.4241 48.2861 59.335" fill="none" opacity="1" stroke="#000000" stroke-linecap="round" stroke-linejoin="round" stroke-width="1"/>
<path d="M50.8582 57.2861C51.3336 57.0484 52.0357 57.1117 52.5583 57.1117C52.8519 57.1117 51.7414 54.3427 50.7274 56.3706C49.6829 58.4596 51.5365 61.0318 53.2994 58.6811" fill="none" opacity="1" stroke="#000000" stroke-linecap="round" stroke-linejoin="round" stroke-width="1"/>
<path d="M54.5637 56.2398C54.8443 57.0818 54.0669 59.5266 54.6944 58.8991C56.4508 57.1427 57.4845 53.4179 57.4845 59.117" fill="none" opacity="1" stroke="#000000" stroke-linecap="round" stroke-linejoin="round" stroke-width="1"/>
<path d="M60.0565 52.2292C60.0565 51.5568 60.2745 53.5621 60.2745 54.2345C60.2745 55.6151 60.3034 56.9988 60.2309 58.376C60.2178 58.6244 60.3023 60.2903 60.1437 59.8146" fill="none" opacity="1" stroke="#000000" stroke-linecap="round" stroke-linejoin="round" stroke-width="1"/>
<path d="M58.3999 55.2372C59.0214 55.8586 61.724 55.3244 62.5849 55.3244C62.7146 55.3244 62.9803 55.4146 62.8029 55.2372" fill="none" opacity="1" stroke="#000000" stroke-linecap="round" stroke-linejoin="round" stroke-width="1"/>
<path d="M65.6365 55.3244C65.1157 54.8035 64.6095 54.6163 64.1979 55.5423C63.693 56.6785 68.626 57.5062 66.0725 58.8991C65.4167 59.2567 64.1812 59.2747 63.6312 58.7247" fill="none" opacity="1" stroke="#000000" stroke-linecap="round" stroke-linejoin="round" stroke-width="1"/>
<path d="M70.9105 56.7857C70.752 57.8956 72.2819 57.6903 72.4629 56.7857C72.6004 56.0982 71.0295 55.9522 70.9105 56.7857Z" fill="none" opacity="1" stroke="#000000" stroke-linecap="round" stroke-linejoin="round" stroke-width="1"/>
<path d="M76.6402 52.8906C76.1571 53.8569 76.8096 58.4064 76.8096 57.7453" fill="none" opacity="1" stroke="#000000" stroke-linecap="round" stroke-linejoin="round" stroke-width="1"/>
<path d="M76.1886 52.2132C77.0827 49.5308 82.2772 56.6513 76.5838 54.7535" fill="none" opacity="1" stroke="#000000" stroke-linecap="round" stroke-linejoin="round" stroke-width="1"/>
<path d="M81.8336 55.8825C81.2901 53.1645 78.6465 61.1583 82.3417 57.4631" fill="none" opacity="1" stroke="#000000" stroke-linecap="round" stroke-linejoin="round" stroke-width="1"/>
<path d="M82.5675 52.4954C82.4952 52.2061 82.4853 54.1204 82.511 54.5841C82.575 55.7356 82.6804 56.8716 82.6804 58.0276" fill="none" opacity="1" stroke="#000000" stroke-linecap="round" stroke-linejoin="round" stroke-width="1"/>
<path d="M87.14 53.2858C87.14 52.0313 86.1615 50.087 85.2207 52.1567C84.5316 53.6727 85.5672 59.2444 85.4465 58.7614" fill="none" opacity="1" stroke="#000000" stroke-linecap="round" stroke-linejoin="round" stroke-width="1"/>
<path d="M83.9788 55.9389C85.2753 55.9389 86.589 55.9954 87.8738 55.9954" fill="none" opacity="1" stroke="#000000" stroke-linecap="round" stroke-linejoin="round" stroke-width="1"/>
</g>
</svg>
