<?xml version="1.0" encoding="UTF-8" standalone="no"?>
<svg stroke-miterlimit="10" style="fill-rule:nonzero;clip-rule:evenodd;stroke-linecap:round;stroke-linejoin:round;" version="1.1" viewBox="96 5 61 64" xmlns="http://www.w3.org/2000/svg">
<g>
<path d="M108.218 19.096C111.985 15.9664 115.347 12.2047 119.061 9.02091C119.44 8.69617 119.814 7.78601 120.417 8.38839C121.513 9.48418 121.665 12.5165 121.862 13.9003C122.059 15.2774 123.62 19.643 122.314 20.9484C120.4 22.8623 106.886 20.2025 108.218 19.096Z" fill="#222e39" fill-rule="nonzero" opacity="1" stroke="#222e39" stroke-linecap="round" stroke-linejoin="round" stroke-width="1"/>
<path d="M124.347 9.20163C123.87 8.20081 125.488 8.48871 126.29 8.38839C130.349 7.88099 147.463 6.91055 149.874 9.9245C154.283 15.4357 152.63 28.4388 152.314 34.7734C152.086 39.3177 152.561 56.8223 150.055 60.1645C146.322 65.1411 116.648 66.5673 110.387 65.315C98.6274 62.9631 104.145 42.2361 105.146 34.2313C105.238 33.4943 105.948 23.5292 106.592 23.2074C111.112 20.947 120.631 28.0219 124.483 23.2074C126.697 20.44 125.745 12.1358 124.347 9.20163Z" fill="none" opacity="1" stroke="#1a6db5" stroke-linecap="round" stroke-linejoin="round" stroke-width="1"/>
<path d="M136.834 15.4781C131.263 15.9459 131.272 25.0805 138.598 24.1233C145.168 23.265 142.518 15.0008 136.834 15.4781Z" fill="#222e39" fill-rule="nonzero" opacity="1" stroke="#222e39" stroke-linecap="round" stroke-linejoin="round" stroke-width="1"/>
<path d="M129.425 34.8638C126.408 27.6048 145.989 19.2371 145.989 35.677" fill="#222e39" fill-rule="nonzero" opacity="1" stroke="#222e39" stroke-linecap="round" stroke-linejoin="round" stroke-width="1"/>
<path d="M130.056 35.0445C135.086 35.0445 140.339 35.5867 145.268 35.5867" fill="none" opacity="1" stroke="#222e39" stroke-linecap="round" stroke-linejoin="round" stroke-width="1"/>
<path d="M108.745 40.0638C121.86 40.0638 134.941 40.6919 147.937 40.6919" fill="none" opacity="1" stroke="#222e39" stroke-linecap="round" stroke-linejoin="round" stroke-width="1"/>
<path d="M108.557 47.5378C121.751 47.5378 134.93 47.3494 148.125 47.3494" fill="none" opacity="1" stroke="#222e39" stroke-linecap="round" stroke-linejoin="round" stroke-width="1"/>
<path d="M109.688 54.8862C122.398 54.8862 135.284 55.1375 147.937 55.1375" fill="none" opacity="1" stroke="#222e39" stroke-linecap="round" stroke-linejoin="round" stroke-width="1"/>
</g>
</svg>
